<svg width="120" height="120" viewBox="0 0 120 120" fill="none" xmlns="http://www.w3.org/2000/svg">
  <defs>
    <linearGradient id="shieldGradient" x1="0%" y1="0%" x2="100%" y2="100%">
      <stop offset="0%" stop-color="#6366f1" />
      <stop offset="50%" stop-color="#8b5cf6" />
      <stop offset="100%" stop-color="#10b981" />
    </linearGradient>
    <linearGradient id="iconGradient" x1="0%" y1="100%" x2="100%" y2="0%">
      <stop offset="0%" stop-color="#10b981" />
      <stop offset="50%" stop-color="#06b6d4" />
      <stop offset="100%" stop-color="#6366f1" />
    </linearGradient>
  </defs>

  <!-- Shield Shape -->
  <path d="M60 8C60 8, 20 20, 20 55C20 85, 45 105, 60 112C75 105, 100 85, 100 55C100 20, 60 8, 60 8Z"
        fill="url(#shieldGradient)" stroke="rgba(255,255,255,0.2)" stroke-width="1"/>

  <!-- Inner Shield (cutout) -->
  <path d="M60 20C60 20, 32 30, 32 56C32 80, 50 94, 60 100C70 94, 88 80, 88 56C88 30, 60 20, 60 20Z"
        fill="#0a0a0f"/>

  <!-- Delivery Scooter Icon -->
  <g transform="translate(35, 38)">
    <path d="M38 32L38 18L45 10L42 8L35 16L28 16C28 16, 25 16, 25 19L25 24L18 24C16 24, 14 26, 14 28L14 30L8 32L8 36L16 36C18 36, 20 34, 20 32L25 32L25 35C25 38, 28 40, 32 40L42 40C46 40, 48 37, 48 34L48 32Z"
          fill="url(#iconGradient)"/>
    <circle cx="42" cy="38" r="6" fill="none" stroke="url(#iconGradient)" stroke-width="2.5"/>
    <circle cx="42" cy="38" r="2" fill="url(#iconGradient)"/>
    <circle cx="14" cy="38" r="5" fill="none" stroke="url(#iconGradient)" stroke-width="2.5"/>
    <circle cx="14" cy="38" r="1.5" fill="url(#iconGradient)"/>
  </g>

  <!-- Checkmark -->
  <circle cx="85" cy="85" r="12" fill="rgba(16, 185, 129, 0.2)"/>
  <path d="M80 85L84 89L90 81" stroke="#10b981" stroke-width="2.5" stroke-linecap="round" stroke-linejoin="round" fill="none"/>

  <!-- Decorative Ring -->
  <circle cx="60" cy="60" r="52" stroke="rgba(99, 102, 241, 0.2)" stroke-width="0.5" fill="none" stroke-dasharray="4 4"/>
</svg>
